Coordinates
version=1
nRows=15
nColumns=34
inDegrees=yes

Units are S.I. units (second, meters, Newtons, ...)
If the header above contains a line with 'inDegrees', this indicates whether rotational values are in degrees (yes) or radians (no).

endheader
time	pelvis_tilt	pelvis_list	pelvis_rotation	pelvis_tx	pelvis_ty	pelvis_tz	hip_flexion_r	hip_adduction_r	hip_rotation_r	knee_angle_r	ankle_angle_r	subtalar_angle_r	mtp_angle_r	hip_flexion_l	hip_adduction_l	hip_rotation_l	knee_angle_l	ankle_angle_l	subtalar_angle_l	mtp_angle_l	lumbar_extension	lumbar_bending	lumbar_rotation	arm_flex_r	arm_add_r	arm_rot_r	elbow_flex_r	pro_sup_r	arm_flex_l	arm_add_l	arm_rot_l	elbow_flex_l	pro_sup_l
      8.20000000	      4.23921613	     -1.52383656	      4.46476578	      0.17495099	      0.98778027	     -0.20284588	     28.27634422	     -2.03422572	     -4.30478662	      7.14415468	    -13.49480622	     -5.10541811	      0.00000000	      4.68547689	      5.25416624	      1.47774678	     22.66874851	      3.72424665	     -3.50506631	      0.00000000	    -14.45117868	      1.73751916	      2.08476630	     36.23537754	      5.41607362	     63.19666465	    122.81018597	     89.16593283	     49.96826368	      0.18162647	     70.26587031	    125.03609373	     62.75259189
      8.21666670	      4.22974617	     -1.65204215	      4.33463087	      0.17584677	      0.98770136	     -0.20253631	     28.38474359	     -1.85068060	     -4.43195865	      7.08250465	    -13.58925312	     -5.21551315	      0.00000000	      4.56368323	      5.14981419	      1.66075604	     22.31087497	      4.04324090	     -3.49746940	      0.00000000	    -14.30791534	      1.84114129	      2.21158038	     36.41366591	      5.39235168	     63.04181747	    122.84223979	     89.14493738	     50.15163034	      0.16339948	     70.11952236	    125.03104559	     62.69218856
      8.23333330	      4.36451500	     -1.72051517	      4.28262524	      0.17693600	      0.98777002	     -0.20236358	     28.21927888	     -1.72450656	     -4.44061088	      6.99001457	    -13.76247867	     -5.37544895	      0.00000000	      4.33004326	      5.13283315	      1.97757749	     22.03399460	      4.96123025	     -3.58537727	      0.00000000	    -14.34673054	      1.96058176	      2.35436686	     36.38462224	      5.26372794	     62.66020284	    122.72635180	     89.07831735	     50.33008049	      0.17513024	     69.81472037	    124.82095798	     62.49462384
      8.25000000	      4.39289505	     -1.70760972	      4.32566126	      0.17679239	      0.98644112	     -0.20206316	     28.27567917	     -1.67419640	     -4.44348292	      6.96284916	    -13.75929236	     -5.37625211	      0.00000000	      4.29259219	      5.15702886	      1.97079100	     22.02609958	      4.96895167	     -3.58735971	      0.00000000	    -14.34008125	      1.96079194	      2.35377884	     36.38408637	      5.26663689	     62.65946258	    122.72710861	     89.07798284	     50.33289278	      0.17862610	     69.81327929	    124.82091838	     62.49336040
      8.26666670	      4.31104725	     -1.72070590	      4.28072830	      0.17786734	      0.98660338	     -0.20280475	     28.27987026	     -1.57434818	     -4.66793127	      6.81155388	    -13.64394856	     -5.52671705	      0.00000000	      3.95248693	      5.22464042	      1.93846703	     21.40761539	      5.21232362	     -3.67503718	      0.00000000	    -14.02759435	      1.96044211	      2.36282942	     36.33574993	      5.40024903	     62.65910484	    122.77761598	     89.06997927	     50.45286135	      0.26388190	     69.75641449	    124.83582833	     62.45873195
      8.28333330	      4.30641691	     -1.69158452	      4.29501227	      0.17689775	      0.98596620	     -0.20266235	     28.23842191	     -1.49436712	     -4.68424898	      6.67227070	    -13.54475867	     -5.53442813	      0.00000000	      3.73571867	      5.32661156	      1.91727979	     20.92689015	      5.66907729	     -3.92947060	      0.00000000	    -13.99510620	      1.95719795	      2.43162119	     36.12147685	      5.41643833	     62.69304090	    122.81601696	     89.05463002	     50.32686476	      0.27467311	     69.80328368	    124.84932166	     62.39797221
      8.30000000	      4.35118474	     -1.64088509	      4.18712262	      0.17660378	      0.98431446	     -0.20263269	     28.28887032	     -1.36947366	     -4.79722583	      6.54616714	    -13.49725416	     -5.57658521	      0.00000000	      3.66383875	      5.47662583	      1.94318060	     20.97634792	      5.63526693	     -3.91484769	      0.00000000	    -13.98445597	      1.92054314	      2.49719297	     36.08234034	      5.44570439	     62.71842594	    122.84484260	     89.05106085	     50.27604763	      0.25710348	     69.82776423	    124.87065735	     62.38245030
      8.31666670	      4.33637792	     -1.62041179	      4.25172065	      0.17684297	      0.98381142	     -0.20246977	     28.33772722	     -1.25789197	     -4.80786174	      6.52404261	    -13.49642654	     -5.57584632	      0.00000000	      3.59667766	      5.56355304	      1.92827407	     21.00726041	      5.62740126	     -3.91207067	      0.00000000	    -13.98096074	      1.92032864	      2.50245428	     36.08057614	      5.44836488	     62.72116550	    122.84766498	     89.05090003	     50.27401928	      0.25565509	     69.82884757	    124.87222294	     62.38154627
      8.33333330	      4.30912616	     -1.53814473	      4.04530437	      0.17790039	      0.98641659	     -0.20196123	     28.10522245	     -1.03612013	     -5.21500541	      6.14270127	    -13.70874494	     -5.38352780	      0.00000000	      3.55944427	      5.59245674	      1.52621183	     21.00911748	      4.41212783	     -3.71847906	      0.00000000	    -13.88866530	      1.81495365	      2.86875113	     35.82784765	      5.49060893	     63.03785191	    123.04695129	     89.01789004	     50.04672381	      0.13693338	     70.00408643	    125.04412453	     62.22580430
      8.35000000	      4.24016321	     -1.51875690	      4.08721576	      0.17750370	      0.98527028	     -0.20275893	     28.08460641	     -0.93730261	     -5.21997460	      6.16052680	    -13.70881222	     -5.38099453	      0.00000000	      3.52002743	      5.65818277	      1.51123369	     21.02129868	      4.41699911	     -3.72221596	      0.00000000	    -13.89340931	      1.81710231	      2.86637137	     35.82940485	      5.48557804	     63.03652672	    123.04624323	     89.01748355	     50.04746810	      0.13663731	     70.00431257	    125.04414892	     62.22441600
      8.36666670	      4.16724911	     -1.52240393	      3.90700043	      0.17599475	      0.98381649	     -0.20300861	     28.10311258	     -0.74461000	     -5.28063390	      6.19152873	    -13.68634940	     -5.40017941	      0.00000000	      3.56551119	      5.71878749	      1.48183234	     20.95282928	      4.47653987	     -3.75439580	      0.00000000	    -13.97741168	      1.88808236	      2.79681300	     35.83999183	      5.41054771	     63.01739496	    123.04223384	     89.01381670	     50.06336113	      0.14958844	     70.00264866	    125.03763399	     62.21073167
      8.38333330	      4.09774279	     -1.65869811	      3.79524211	      0.17787857	      0.98197637	     -0.20353529	     28.16589419	     -0.46077614	     -5.02042254	      6.33668798	    -13.25239560	     -5.27506615	      0.00000000	      3.73599925	      5.53395452	      1.28490407	     20.91369070	      5.56698878	     -4.22628052	      0.00000000	    -13.86800732	      2.11174526	      2.94587433	     36.02854572	      5.16196624	     62.93763830	    123.07217945	     88.97444787	     50.03321692	      0.13198118	     69.91480897	    125.07282162	     62.05239210
      8.40000000	      4.07551930	     -1.59871927	      3.67906860	      0.17680963	      0.98118693	     -0.20399982	     28.19400590	     -0.45403270	     -5.07129382	      6.34406342	    -13.21286197	     -5.30448110	      0.00000000	      3.70931715	      5.64349679	      1.20616389	     20.98671219	      5.57970546	     -4.23983266	      0.00000000	    -13.86721349	      2.19090397	      2.87762640	     36.00863754	      5.13576225	     62.93904853	    123.09293351	     88.97255811	     50.05109039	      0.16958045	     69.90499570	    125.06690987	     62.04095311
      8.41666670	      3.92963924	     -1.50845006	      3.54485649	      0.17654644	      0.98160315	     -0.20369805	     28.44278995	     -0.41516578	     -5.06280082	      6.64180356	    -13.00076109	     -5.31260349	      0.00000000	      4.00395010	      5.65711205	      0.60360610	     21.28757579	      5.32110027	     -4.26174516	      0.00000000	    -13.80728442	      2.05853677	      2.78114495	     36.11842021	      5.10890199	     63.09466764	    123.37180956	     88.95520219	     50.16885657	      0.18559148	     69.66362814	    125.03097233	     61.89465218
      8.43333330	      3.87777983	     -1.40297477	      3.43741376	      0.17587004	      0.98266759	     -0.20416809	     28.44133157	     -0.41373164	     -5.08802115	      6.57973344	    -13.01276532	     -5.30020281	      0.00000000	      4.05374550	      5.79813977	      0.58841506	     21.35182464	      5.23748737	     -4.20967468	      0.00000000	    -13.82517428	      2.13056851	      2.75811592	     36.12128053	      5.07711927	     63.11367861	    123.37997099	     88.95383670	     50.16799752	      0.19249404	     69.66348674	    125.01254813	     61.88131804
